<svg width="195" height="47" viewBox="0 0 195 47" fill="none" xmlns="http://www.w3.org/2000/svg">
<path d="M61.5504 31.3307H58.2656V15.8345H61.5504V31.3307ZM65.1729 23.5604L70.7413 31.3307H66.8977L61.6871 23.5604L66.8334 15.8345H70.3433L65.1729 23.5604ZM77.6004 19.1076C74.0261 19.1076 71.8993 21.6159 71.8993 25.4003C71.8993 29.1848 74.0462 31.693 77.5803 31.693C81.1143 31.693 83.2573 29.1647 83.2573 25.4003C83.2573 21.4589 81.1344 19.1076 77.6004 19.1076ZM77.5803 29.4103C76.1892 29.4103 75.0634 27.6348 75.0634 25.4406C75.0634 23.2464 76.1892 21.475 77.5803 21.475C78.9714 21.475 80.0971 23.2504 80.0971 25.4406C80.0971 27.6308 78.9714 29.4103 77.5803 29.4103ZM99.6369 19.1117C96.1712 19.1117 93.98 21.7326 93.98 25.4929C93.98 29.2533 96.1471 31.6971 99.6812 31.6971C101.104 31.7172 102.483 31.222 103.577 30.3081L102.19 28.3152C101.515 28.8346 100.694 29.1244 99.842 29.1446C98.3463 29.1446 97.3372 28.2307 97.3372 25.4728C97.3372 22.715 98.278 21.5716 99.8621 21.5716C100.714 21.5716 101.539 21.8735 102.186 22.4211L103.573 20.5409C102.487 19.5787 101.08 19.0674 99.6329 19.1117H99.6369ZM110.002 19.1076C106.424 19.1076 104.301 21.6159 104.301 25.4003C104.301 29.1848 106.448 31.693 109.978 31.693C113.508 31.693 115.659 29.1647 115.659 25.4003C115.659 21.4589 113.536 19.1076 110.002 19.1076ZM109.982 29.4103C108.591 29.4103 107.465 27.6348 107.465 25.4406C107.465 23.2464 108.591 21.475 109.982 21.475C111.373 21.475 112.499 23.2504 112.499 25.4406C112.499 27.6308 111.373 29.4103 109.982 29.4103ZM130.792 19.0996C129.325 18.9708 127.929 19.7438 127.258 21.0562C126.848 19.8484 125.694 19.0513 124.42 19.0996C122.984 18.9426 121.609 19.7277 121.022 21.0482V19.4579H117.983V31.3307H121.159V24.1966C121.159 22.9646 121.718 21.5998 123.217 21.3018C123.833 21.1811 124.379 21.5353 124.379 22.5137V31.3307H127.556V24.269C127.556 22.4533 128.645 21.475 129.59 21.3099C130.205 21.2012 130.752 21.479 130.752 22.5096V31.3267H133.928V22.6828C133.928 20.4443 132.654 19.0996 130.796 19.0956L130.792 19.0996ZM182.585 21.0603C182.175 19.8525 181.017 19.0553 179.742 19.1076C178.198 19.0231 176.723 19.7639 175.87 21.0562V19.466H172.831V31.3347H176.007V24.2046C176.031 22.7512 177.101 21.5273 178.536 21.3099C179.159 21.2616 179.698 21.5434 179.698 22.5217V31.3388H182.874V24.2771C182.874 22.4573 182.89 21.8333 182.585 21.0643V21.0603ZM143.413 19.1076C141.997 18.9949 140.662 19.7719 140.059 21.0562V19.466H137.016V36.2586H140.192V30.4128C140.936 31.2623 142.017 31.7293 143.143 31.689C146.094 31.689 147.839 29.0037 147.839 25.3762C147.835 21.5474 146.058 19.1076 143.413 19.1076ZM142.625 29.3177C141.233 29.3177 140.345 27.1718 140.345 25.2192C140.345 23.2665 141.233 21.3501 142.625 21.3501C144.016 21.3501 144.904 23.2625 144.904 25.2192C144.904 27.1758 144.016 29.3177 142.62 29.3177H142.625ZM156.897 28.7581C156.491 29.0037 156.029 29.1446 155.555 29.1607C154.754 29.1607 154.373 28.7138 154.373 27.5503V21.7044H157.987L158.003 19.466H154.373V15.8385L151.196 16.8692V19.466H149.431V21.7044H151.196V27.6106C151.196 30.2517 152.447 31.6608 154.907 31.685C156.005 31.685 157.074 31.3669 157.995 30.7671L156.893 28.754L156.897 28.7581ZM169.872 26.3585H162.47C162.695 28.6413 163.769 29.3137 165.288 29.3137C166.338 29.2935 167.351 28.9352 168.171 28.283L169.494 30.0746C168.231 31.1254 166.639 31.693 164.999 31.689C161.199 31.689 159.209 29.1808 159.209 25.4648C159.209 21.7487 161.131 19.1036 164.597 19.1036C168.062 19.1036 169.94 21.3421 169.94 25.1266C169.94 25.5292 169.896 26.0244 169.872 26.3585ZM166.784 24.2328C166.784 22.4412 166.181 21.2777 164.661 21.2777C163.411 21.2777 162.647 22.107 162.47 24.3697H166.784V24.2368V24.2328ZM194.968 19.466H186.227V21.9057H191.325L185.761 29.0479V31.3307H195V28.8668H189.403L194.972 21.7246V19.4619L194.968 19.466ZM91.7808 19.1278C90.446 19.0352 89.1996 19.8122 88.693 21.0562V19.466H85.6535V31.3347H88.8297V24.3214C88.8297 22.3043 90.1163 21.3099 91.3788 21.3542C91.9738 21.3421 92.5487 21.5796 92.9669 22.0064L94.2333 20.094C93.5659 19.474 92.6935 19.1278 91.7808 19.1278Z" fill="#0F0F0F"/>
<path d="M18.7638 23.5L3.69487 38.5896L0 34.8937L11.3781 23.5L0 12.1063L3.69487 8.40637L18.7638 23.496V23.5ZM43.2409 38.5896L46.9357 34.8897L35.5576 23.496L46.9357 12.1023L43.2409 8.40235L28.1719 23.4919L43.2409 38.5815V38.5896ZM8.3989 43.3001L12.0938 47L23.4719 35.6063L34.85 47L38.5449 43.3001L23.4759 28.2105L8.40694 43.3001H8.3989ZM38.5368 3.69993L34.846 0L23.4679 11.3937L12.0897 0L8.39488 3.69993L23.4638 18.7895L38.5368 3.69993Z" fill="#269176"/>
<path d="M20.276 23.5L5.20703 38.5896H3.69531L18.7643 23.5H20.276ZM38.5373 3.69995L23.4683 18.7896H24.98L40.053 3.69995H38.5413H38.5373ZM48.4479 12.1063H46.9362L35.5581 23.5H37.0698L48.4479 12.1063ZM48.4479 34.8937L44.753 38.5936H43.2413L46.9362 34.8937H48.4479ZM38.5373 43.3001L34.8424 47H36.3541L40.049 43.3001H38.5373ZM23.4683 35.6063L12.0902 47H13.6019L24.2242 36.3632L23.4683 35.6063Z" fill="#3EBB93"/>
<path d="M12.0902 0H13.6019L24.2242 10.6368L23.4683 11.3937L12.0902 0ZM5.20703 8.4104H3.69531L18.7643 23.5H20.276L5.20703 8.4104ZM38.5373 3.69993H40.049L36.3581 0H34.8464L38.5413 3.69993H38.5373ZM46.9362 12.1063H48.4479L44.753 8.40637H43.2413L46.9362 12.1063ZM35.5581 23.5L46.9362 34.8937H48.4479L37.0698 23.5H35.5581ZM23.4683 28.2105L38.5373 43.3001H40.049L24.98 28.2105H23.4683Z" fill="#2D2B70"/>
<path d="M23.4557 19.8967L25.7393 23.4839L23.4557 27.0711L21.168 23.4839L23.4557 19.8967Z" fill="#BA1E68"/>
<path d="M25.7397 23.4839H27.2514L24.9678 27.0711H23.4561L25.7397 23.4839Z" fill="#D31F7D"/>
<path d="M23.46 19.8967H24.9717L27.2553 23.4839H25.7436L23.46 19.8967Z" fill="#801543"/>
</svg>
