<svg width="195" height="48" viewBox="0 0 195 48" fill="none" xmlns="http://www.w3.org/2000/svg">
<path d="M61.5504 31.5524H58.2656V15.9463H61.5504V31.5524ZM65.1729 23.7271L70.7413 31.5524H66.8977L61.6871 23.7271L66.8334 15.9463H70.3433L65.1729 23.7271ZM77.6004 19.2427C74.0261 19.2427 71.8993 21.7687 71.8993 25.58C71.8993 29.3913 74.0462 31.9173 77.5803 31.9173C81.1143 31.9173 83.2573 29.371 83.2573 25.58C83.2573 21.6106 81.1344 19.2427 77.6004 19.2427ZM77.5803 29.6184C76.1892 29.6184 75.0634 27.8303 75.0634 25.6205C75.0634 23.4108 76.1892 21.6268 77.5803 21.6268C78.9714 21.6268 80.0971 23.4148 80.0971 25.6205C80.0971 27.8262 78.9714 29.6184 77.5803 29.6184ZM99.6369 19.2467C96.1712 19.2467 93.98 21.8863 93.98 25.6733C93.98 29.4603 96.1471 31.9214 99.6812 31.9214C101.104 31.9417 102.483 31.4429 103.577 30.5226L102.19 28.5155C101.515 29.0386 100.694 29.3305 99.842 29.3508C98.3463 29.3508 97.3372 28.4304 97.3372 25.653C97.3372 22.8756 98.278 21.7241 99.8621 21.7241C100.714 21.7241 101.539 22.0282 102.186 22.5796L103.573 20.6861C102.487 19.7171 101.08 19.2021 99.6329 19.2467H99.6369ZM110.002 19.2427C106.424 19.2427 104.301 21.7687 104.301 25.58C104.301 29.3913 106.448 31.9173 109.978 31.9173C113.508 31.9173 115.659 29.371 115.659 25.58C115.659 21.6106 113.536 19.2427 110.002 19.2427ZM109.982 29.6184C108.591 29.6184 107.465 27.8303 107.465 25.6205C107.465 23.4108 108.591 21.6268 109.982 21.6268C111.373 21.6268 112.499 23.4148 112.499 25.6205C112.499 27.8262 111.373 29.6184 109.982 29.6184ZM130.792 19.2346C129.325 19.1048 127.929 19.8833 127.258 21.2051C126.848 19.9887 125.694 19.1859 124.42 19.2346C122.984 19.0764 121.609 19.8671 121.022 21.197V19.5954H117.983V31.5524H121.159V24.3677C121.159 23.127 121.718 21.7525 123.217 21.4524C123.833 21.3308 124.379 21.6876 124.379 22.6729V31.5524H127.556V24.4407C127.556 22.612 128.645 21.6268 129.59 21.4605C130.205 21.3511 130.752 21.6308 130.752 22.6688V31.5484H133.928V22.8432C133.928 20.5888 132.654 19.2346 130.796 19.2305L130.792 19.2346ZM182.585 21.2092C182.175 19.9928 181.017 19.19 179.742 19.2427C178.198 19.1575 176.723 19.9036 175.87 21.2051V19.6035H172.831V31.5565H176.007V24.3758C176.031 22.9121 177.101 21.6795 178.536 21.4605C179.159 21.4119 179.698 21.6957 179.698 22.681V31.5605H182.874V24.4488C182.874 22.6161 182.89 21.9876 182.585 21.2132V21.2092ZM143.413 19.2427C141.997 19.1291 140.662 19.9117 140.059 21.2051V19.6035H137.016V36.5152H140.192V30.628C140.936 31.4835 142.017 31.9538 143.143 31.9133C146.094 31.9133 147.839 29.2089 147.839 25.5557C147.835 21.6998 146.058 19.2427 143.413 19.2427ZM142.625 29.5251C141.233 29.5251 140.345 27.364 140.345 25.3975C140.345 23.4311 141.233 21.5011 142.625 21.5011C144.016 21.5011 144.904 23.427 144.904 25.3975C144.904 27.3681 144.016 29.5251 142.62 29.5251H142.625ZM156.897 28.9615C156.491 29.2089 156.029 29.3508 155.555 29.367C154.754 29.367 154.373 28.9169 154.373 27.7452V21.8579H157.987L158.003 19.6035H154.373V15.9503L151.196 16.9883V19.6035H149.431V21.8579H151.196V27.806C151.196 30.4658 152.447 31.8849 154.907 31.9092C156.005 31.9092 157.074 31.5889 157.995 30.9848L156.893 28.9575L156.897 28.9615ZM169.872 26.545H162.47C162.695 28.844 163.769 29.5211 165.288 29.5211C166.338 29.5008 167.351 29.1399 168.171 28.4831L169.494 30.2874C168.231 31.3456 166.639 31.9173 164.999 31.9133C161.199 31.9133 159.209 29.3873 159.209 25.6449C159.209 21.9025 161.131 19.2386 164.597 19.2386C168.062 19.2386 169.94 21.493 169.94 25.3043C169.94 25.7098 169.896 26.2085 169.872 26.545ZM166.784 24.4042C166.784 22.5999 166.181 21.4281 164.661 21.4281C163.411 21.4281 162.647 22.2633 162.47 24.542H166.784V24.4082V24.4042ZM194.968 19.6035H186.227V22.0606H191.325L185.761 29.2535V31.5524H195V29.071H189.403L194.972 21.8782V19.5995L194.968 19.6035ZM91.7808 19.2629C90.446 19.1697 89.1996 19.9522 88.693 21.2051V19.6035H85.6535V31.5565H88.8297V24.4934C88.8297 22.462 90.1163 21.4605 91.3788 21.5051C91.9738 21.493 92.5487 21.7322 92.9669 22.162L94.2333 20.236C93.5659 19.6116 92.6935 19.2629 91.7808 19.2629Z" fill="white"/>
<path d="M18.7638 23.6667L3.69487 38.8633L0 35.1412L11.3781 23.6667L0 12.1922L3.69487 8.46599L18.7638 23.6626V23.6667ZM43.2409 38.8633L46.9357 35.1371L35.5576 23.6626L46.9357 12.1881L43.2409 8.46194L28.1719 23.6586L43.2409 38.8552V38.8633ZM8.3989 43.6072L12.0938 47.3333L23.4719 35.8588L34.85 47.3333L38.5449 43.6072L23.4759 28.4105L8.40694 43.6072H8.3989ZM38.5368 3.72617L34.846 0L23.4679 11.4745L12.0897 0L8.39488 3.72617L23.4638 18.9228L38.5368 3.72617Z" fill="#269176"/>
<path d="M20.2756 23.6671L5.20661 38.8637H3.69489L18.7639 23.6671H20.2756ZM38.5368 3.72656L23.4679 18.9232H24.9796L40.0526 3.72656H38.5409H38.5368ZM48.4475 12.1926H46.9357L35.5576 23.6671H37.0693L48.4475 12.1926ZM48.4475 35.1416L44.7526 38.8677H43.2409L46.9357 35.1416H48.4475ZM38.5368 43.6076L34.842 47.3337H36.3537L40.0486 43.6076H38.5368ZM23.4679 35.8592L12.0898 47.3337H13.6015L24.2237 36.6215L23.4679 35.8592Z" fill="#3EBB93"/>
<path d="M12.0898 0H13.6015L24.2237 10.7122L23.4679 11.4745L12.0898 0ZM5.20661 8.47005H3.69489L18.7639 23.6667H20.2756L5.20661 8.47005ZM38.5368 3.72617H40.0486L36.3577 0H34.846L38.5409 3.72617H38.5368ZM46.9357 12.1922H48.4475L44.7526 8.46599H43.2409L46.9357 12.1922ZM35.5576 23.6667L46.9357 35.1412H48.4475L37.0693 23.6667H35.5576ZM23.4679 28.4105L38.5368 43.6072H40.0486L24.9796 28.4105H23.4679Z" fill="#2D2B70"/>
<path d="M23.4558 20.0381L25.7394 23.6507L23.4558 27.2634L21.1681 23.6507L23.4558 20.0381Z" fill="#BA1E68"/>
<path d="M25.7394 23.6504H27.2511L24.9675 27.263H23.4557L25.7394 23.6504Z" fill="#D31F7D"/>
<path d="M23.4598 20.0381H24.9715L27.2552 23.6507H25.7434L23.4598 20.0381Z" fill="#801543"/>
</svg>
