<svg width="50" height="26" viewBox="0 0 50 26" fill="none" xmlns="http://www.w3.org/2000/svg">
<g clip-path="url(#clip0_1372_914)">
<path d="M3.11086 0L8.59803e-07 3.18715L9.57971 12.9983L0 22.8129L3.11086 26L15.798 12.9983L3.11086 0Z" fill="#5648D8"/>
<path d="M14.5113 0L11.4004 3.18715L20.98 12.9983L11.4004 22.8129L14.5113 26L27.1984 12.9983L14.5113 0Z" fill="#5648D8"/>
<path d="M25.9117 0L22.8008 3.18715L32.3804 12.9983L22.8008 22.8129L25.9117 26L38.5988 12.9983L25.9117 0Z" fill="#5648D8"/>
<path d="M37.3121 0L34.2012 3.18715L43.7808 12.9983L34.2012 22.8129L37.3121 26L49.9992 12.9983L37.3121 0Z" fill="#5648D8"/>
</g>
<defs>
<clipPath id="clip0_1372_914">
<rect width="50" height="26" fill="white"/>
</clipPath>
</defs>
</svg>
