<svg width="22" height="22" viewBox="0 0 22 22" fill="none" xmlns="http://www.w3.org/2000/svg">
<g clip-path="url(#clip0_3722_6919)">
<path d="M18.7612 1.26758H16.8598V3.16895C16.8598 3.54923 16.5429 3.80274 16.226 3.80274C15.9091 3.80274 15.5922 3.54923 15.5922 3.16895V1.26758H5.45158V3.16895C5.45158 3.54923 5.13468 3.80274 4.81779 3.80274C4.50089 3.80274 4.184 3.54923 4.184 3.16895V1.26758H2.28262C1.33194 1.26758 0.634766 2.09151 0.634766 3.16895V5.4506H20.9161V3.16895C20.9161 2.09151 19.7753 1.26758 18.7612 1.26758ZM0.634766 6.78156V18.3799C0.634766 19.5208 1.33194 20.2813 2.346 20.2813H18.8246C19.8386 20.2813 20.9795 19.4574 20.9795 18.3799V6.78156H0.634766ZM6.27551 17.4292H4.75441C4.50089 17.4292 4.24738 17.2391 4.24738 16.9222V15.3377C4.24738 15.0842 4.43751 14.8307 4.75441 14.8307H6.33889C6.5924 14.8307 6.84592 15.0208 6.84592 15.3377V16.9222C6.78254 17.2391 6.5924 17.4292 6.27551 17.4292ZM6.27551 11.7251H4.75441C4.50089 11.7251 4.24738 11.535 4.24738 11.2181V9.63362C4.24738 9.3801 4.43751 9.12659 4.75441 9.12659H6.33889C6.5924 9.12659 6.84592 9.31672 6.84592 9.63362V11.2181C6.78254 11.535 6.5924 11.7251 6.27551 11.7251ZM11.3458 17.4292H9.76136C9.50784 17.4292 9.25433 17.2391 9.25433 16.9222V15.3377C9.25433 15.0842 9.44446 14.8307 9.76136 14.8307H11.3458C11.5994 14.8307 11.8529 15.0208 11.8529 15.3377V16.9222C11.8529 17.2391 11.6627 17.4292 11.3458 17.4292ZM11.3458 11.7251H9.76136C9.50784 11.7251 9.25433 11.535 9.25433 11.2181V9.63362C9.25433 9.3801 9.44446 9.12659 9.76136 9.12659H11.3458C11.5994 9.12659 11.8529 9.31672 11.8529 9.63362V11.2181C11.8529 11.535 11.6627 11.7251 11.3458 11.7251ZM16.4162 17.4292H14.8317C14.5782 17.4292 14.3247 17.2391 14.3247 16.9222V15.3377C14.3247 15.0842 14.5148 14.8307 14.8317 14.8307H16.4162C16.6697 14.8307 16.9232 15.0208 16.9232 15.3377V16.9222C16.9232 17.2391 16.7331 17.4292 16.4162 17.4292ZM16.4162 11.7251H14.8317C14.5782 11.7251 14.3247 11.535 14.3247 11.2181V9.63362C14.3247 9.3801 14.5148 9.12659 14.8317 9.12659H16.4162C16.6697 9.12659 16.9232 9.31672 16.9232 9.63362V11.2181C16.9232 11.535 16.7331 11.7251 16.4162 11.7251Z" fill="#26A17C"/>
</g>
<defs>
<clipPath id="clip0_3722_6919">
<rect width="21.5489" height="21.5489" fill="white"/>
</clipPath>
</defs>
</svg>
