<svg width="20" height="20" viewBox="0 0 20 20" fill="none" xmlns="http://www.w3.org/2000/svg">
<g clip-path="url(#clip0_3722_6922)">
<path d="M12.881 7.75955C14.1798 6.5754 15.9362 4.97388 16.0963 1.14785H17.256V0H2.33398V1.14785H3.49365C3.65374 4.97388 5.41017 6.5754 6.709 7.75955C7.58025 8.5539 8.07321 9.04009 8.07321 9.79495C8.07321 10.5498 7.58025 11.036 6.709 11.8304C5.41017 13.0145 3.65374 14.616 3.49365 18.4421H2.33398V19.5899H17.256V18.4421H16.0963C15.9362 14.616 14.1798 13.0145 12.881 11.8304C12.0097 11.036 11.5168 10.5498 11.5168 9.79495C11.5168 9.04009 12.0097 8.5539 12.881 7.75955ZM9.22106 14.097C9.04196 14.1339 8.86674 14.1876 8.69776 14.2575L5.1824 15.7122C5.75648 14.2525 6.68111 13.4091 7.48234 12.6786C8.37651 11.8634 9.22106 11.0934 9.22106 9.79495V14.097ZM12.1076 12.6786C12.9089 13.4091 13.8334 14.2525 14.4076 15.7121L10.8922 14.2575C10.7232 14.1876 10.548 14.1339 10.3689 14.097V9.79495C10.3689 11.0934 11.2135 11.8634 12.1076 12.6786ZM5.16224 3.82615C4.88473 3.10305 4.69308 2.22996 4.64291 1.14785H14.947C14.8969 2.22996 14.7052 3.10305 14.4277 3.82615H5.16224Z" fill="#26A17C"/>
</g>
<defs>
<clipPath id="clip0_3722_6922">
<rect width="19.5899" height="19.5899" fill="white"/>
</clipPath>
</defs>
</svg>
