<svg width="22" height="22" viewBox="0 0 22 22" fill="none" xmlns="http://www.w3.org/2000/svg">
<g clip-path="url(#clip0_3722_6925)">
<path d="M10.7748 0C6.81416 0 3.5918 3.22236 3.5918 7.18298C3.5918 8.37196 3.88906 9.55083 4.45417 10.5965L10.382 21.3174C10.4609 21.4603 10.6113 21.5489 10.7748 21.5489C10.9383 21.5489 11.0887 21.4603 11.1676 21.3174L17.0976 10.5929C17.6605 9.55083 17.9578 8.37191 17.9578 7.18294C17.9578 3.22236 14.7354 0 10.7748 0ZM10.7748 10.7744C8.79447 10.7744 7.18331 9.16329 7.18331 7.18298C7.18331 5.20267 8.79447 3.59151 10.7748 3.59151C12.7551 3.59151 14.3662 5.20267 14.3662 7.18298C14.3662 9.16329 12.7551 10.7744 10.7748 10.7744Z" fill="#26A17C"/>
</g>
<defs>
<clipPath id="clip0_3722_6925">
<rect width="21.5489" height="21.5489" fill="white"/>
</clipPath>
</defs>
</svg>
