<svg width="63" height="68" viewBox="0 0 63 68" fill="none" xmlns="http://www.w3.org/2000/svg">
<path d="M25.0378 33.6295L4.9303 55.2233L0 49.9343L15.1825 33.6295L0 17.3246L4.9303 12.0299L25.0378 33.6237V33.6295ZM57.699 55.2233L62.6293 49.9286L47.4468 33.6237L62.6293 17.3189L57.699 12.0241L37.5915 33.618L57.699 55.2118V55.2233ZM11.2072 61.9642L16.1375 67.259L31.32 50.9541L46.5026 67.259L51.4329 61.9642L31.3254 40.3704L11.2179 61.9642H11.2072ZM51.4221 5.29476L46.4972 0L31.3147 16.3049L16.1321 0L11.2018 5.29476L31.3093 26.8886L51.4221 5.29476Z" fill="#269176"/>
</svg>
